<?xml version="1.0" standalone="no"?>
<!DOCTYPE svg PUBLIC "-//W3C//DTD SVG 20010904//EN"
 "http://www.w3.org/TR/2001/REC-SVG-20010904/DTD/svg10.dtd">
<svg version="1.0" xmlns="http://www.w3.org/2000/svg"
 width="512.000000pt" height="512.000000pt" viewBox="0 0 512.000000 512.000000"
 preserveAspectRatio="xMidYMid meet">
<metadata>
Created by potrace 1.14, written by Peter Selinger 2001-2017
</metadata>
<g transform="translate(0.000000,512.000000) scale(0.100000,-0.100000)"
fill="#000000" stroke="none">
<path d="M2199 5112 c-15 -2 -45 -19 -68 -38 -56 -48 -72 -113 -46 -179 80
-203 89 -216 147 -240 81 -32 144 -16 195 51 42 56 38 122 -16 243 -22 52 -49
103 -58 114 -36 39 -92 57 -154 49z"/>
<path d="M3748 5100 c-47 -26 -59 -43 -108 -166 -46 -114 -48 -143 -17 -204
38 -76 125 -106 203 -70 55 25 69 43 118 164 50 123 52 167 10 227 -44 63
-138 86 -206 49z"/>
<path d="M2928 4675 c-2 -2 -32 -5 -68 -9 -70 -7 -87 -9 -191 -31 -179 -38
-401 -136 -567 -252 -329 -227 -567 -571 -661 -955 -11 -47 -23 -103 -26 -123
-2 -21 -6 -39 -7 -40 -2 -2 -42 -21 -89 -43 -312 -147 -559 -424 -663 -744
-22 -67 -32 -109 -52 -218 -18 -97 -7 -356 21 -461 6 -24 2 -27 -62 -54 -291
-123 -492 -372 -549 -680 -15 -82 -12 -266 6 -345 74 -336 311 -587 651 -692
l74 -23 1567 -3 1568 -3 97 52 c376 199 657 442 752 651 39 85 50 151 46 259
-3 55 -7 104 -9 108 -3 4 -8 23 -11 41 -49 278 -315 572 -593 655 l-58 18 90
91 c317 320 480 717 480 1166 0 100 -8 206 -19 260 -2 14 -10 50 -16 80 -11
56 -15 70 -48 175 -30 93 -43 123 -89 215 -251 495 -721 826 -1272 895 -51 7
-297 14 -302 10z"/>
<path d="M4870 3977 c-105 -38 -180 -79 -202 -110 -28 -39 -34 -112 -15 -158
8 -20 32 -49 52 -65 32 -24 47 -29 94 -28 35 0 73 8 101 21 25 12 71 32 102
46 103 46 140 143 88 235 -42 74 -120 95 -220 59z"/>
<path d="M1074 3981 c-66 -16 -124 -89 -124 -156 0 -43 38 -112 73 -133 54
-33 213 -92 247 -92 110 0 187 121 142 223 -24 53 -64 83 -172 125 -91 36
-125 42 -166 33z"/>
<path d="M4738 2456 c-110 -58 -126 -206 -31 -274 51 -36 206 -94 254 -94 58
-1 112 33 139 88 25 51 25 94 0 144 -25 48 -39 58 -162 109 -104 43 -155 50
-200 27z"/>
</g>
</svg>
